<svg version="1.1" xmlns="http://www.w3.org/2000/svg" xmlns:xlink="http://www.w3.org/1999/xlink" width="48px" height="48px" viewBox="0,0,256,256"><g fill="none" fill-rule="nonzero" stroke="none" stroke-width="1" stroke-linecap="butt" stroke-linejoin="miter" stroke-miterlimit="10" stroke-dasharray="" stroke-dashoffset="0" font-family="none" font-weight="none" font-size="none" text-anchor="none" style="mix-blend-mode: normal"><g transform="scale(5.33333,5.33333)"><g><g><path d="M6,37v3h-2c-1.65685,0 -3,-1.34315 -3,-3v-26c0,-1.65685 1.34315,-3 3,-3h3l17,15l17,-15h3c1.65685,0 3,1.34315 3,3v26c0,1.65685 -1.34315,3 -3,3h-2v-27l-18,16l-18,-16z" fill="#00b871"></path><path d="M42,36v4h-36v-0.03v-2.97v-24l18,16l18,-16z" fill="#f1f2f2"></path><path d="M41,8l-17,15l-17,-15z" fill="#f1f2f2"></path><path d="M44,41h-40c-2.20914,0 -4,-1.79086 -4,-4v-26c0,-2.20914 1.79086,-4 4,-4h40c2.20914,0 4,1.79086 4,4v26c0,2.20914 -1.79086,4 -4,4zM4,9c-1.10457,0 -2,0.89543 -2,2v26c0,1.10457 0.89543,2 2,2h40c1.10457,0 2,-0.89543 2,-2v-26c0,-1.10457 -0.89543,-2 -2,-2z" fill="#474c54"></path><path d="M42,37c-0.55228,0 -1,-0.44772 -1,-1v-20.773l-16.335,14.52c-0.37893,0.33695 -0.95007,0.33695 -1.329,0l-16.336,-14.52v20.773c0,0.55228 -0.44772,1 -1,1c-0.55228,0 -1,-0.44772 -1,-1v-23c-0.00046,-0.39416 0.23066,-0.75181 0.5902,-0.91333c0.35954,-0.16152 0.78042,-0.09678 1.0748,0.16533l17.335,15.41l17.335,-15.41c0.29437,-0.26211 0.71526,-0.32686 1.0748,-0.16533c0.35954,0.16152 0.59066,0.51918 0.5902,0.91333v23c0,0.55228 -0.44772,1 -1,1z" fill="#474c54"></path><path d="M24,24c-0.23659,-0.00009 -0.46548,-0.08407 -0.646,-0.237l-13,-11c-0.28204,-0.22801 -0.41852,-0.59085 -0.35667,-0.94821c0.06185,-0.35736 0.31235,-0.65323 0.65461,-0.77317c0.34227,-0.11995 0.72265,-0.04518 0.99405,0.19539l12.354,10.453l12.354,-10.453c0.42262,-0.34165 1.04072,-0.28326 1.39188,0.1315c0.35115,0.41475 0.3068,1.03403 -0.09988,1.3945l-13,11c-0.18052,0.15293 -0.40941,0.23691 -0.646,0.237z" fill="#474c54"></path></g></g></g></g></svg>