<svg xmlns="http://www.w3.org/2000/svg" viewBox="0 0 151.44 151.44"><g data-name="Layer 2"><g data-name="Colored icon"><circle cx="75.68" cy="75.64" r="64.59" fill="#e8e8e8"/><circle cx="75.68" cy="75.64" r="64.59" fill="#e8e8e8"/><path fill="#1872a9" d="M107.3,104.38h-14V84.17c0-5.29-2.18-8.9-7-8.9a7.06,7.06,0,0,0-6.68,4.79,9,9,0,0,0-.3,3.19v21.13H65.5s.18-35.8,0-39H79.35v6.13C80.17,68.78,84.59,65,91.66,65c8.76,0,15.64,5.62,15.64,17.72v21.71ZM51.5,60.44h-.09c-4.46,0-7.35-3-7.35-6.77s3-6.78,7.53-6.78,7.34,2.92,7.43,6.77-2.89,6.78-7.52,6.78Zm-5.85,4.89H58v39.05H45.65v-39Z" data-name="LinkedIn"/></g></g></svg>