<svg version="1.1" xmlns="http://www.w3.org/2000/svg" xmlns:xlink="http://www.w3.org/1999/xlink" width="151.44px" height="151.44px" viewBox="0,0,256,256"><g fill="none" fill-rule="nonzero" stroke="none" stroke-width="1" stroke-linecap="butt" stroke-linejoin="miter" stroke-miterlimit="10" stroke-dasharray="" stroke-dashoffset="0" font-family="none" font-weight="none" font-size="none" text-anchor="none" style="mix-blend-mode: normal"><g transform="translate(0.06762,0.13524) scale(1.69044,1.69044)"><g><g><circle cx="75.68" cy="75.64" r="64.59" fill="#e8e8e8"></circle><circle cx="75.68" cy="75.64" r="64.59" fill="#e8e8e8"></circle><path d="M107.3,104.38h-14v-20.21c0,-5.29 -2.18,-8.9 -7,-8.9c-3.02243,0.00219 -5.7082,1.92806 -6.68,4.79c-0.29,1.03683 -0.39161,2.11728 -0.3,3.19v21.13h-13.82c0,0 0.18,-35.8 0,-39h13.85v6.13c0.82,-2.73 5.24,-6.51 12.31,-6.51c8.76,0 15.64,5.62 15.64,17.72v21.71zM51.5,60.44h-0.09c-4.46,0 -7.35,-3 -7.35,-6.77c0,-3.77 3,-6.78 7.53,-6.78c4.53,0 7.34,2.92 7.43,6.77c0.09,3.85 -2.89,6.78 -7.52,6.78zM45.65,65.33h12.35v39.05h-12.35v-39z" fill="#00b871"></path></g></g></g></g></svg>