<svg version="1.1" xmlns="http://www.w3.org/2000/svg" xmlns:xlink="http://www.w3.org/1999/xlink" width="32px" height="32px" viewBox="0,0,256,256"><g fill="none" fill-rule="nonzero" stroke="none" stroke-width="1" stroke-linecap="butt" stroke-linejoin="miter" stroke-miterlimit="10" stroke-dasharray="" stroke-dashoffset="0" font-family="none" font-weight="none" font-size="none" text-anchor="none" style="mix-blend-mode: normal"><g transform="translate(-0.4,0) scale(8,8)"><path d="M24,14.1v-3.6c0,-0.6 -0.4,-1 -1,-1h-11c-0.6,0 -1,0.4 -1,1v3.6c0,0.9 -0.6,1.6 -1.4,1.9l-0.5,0.2c-0.7,0.2 -1.2,0.8 -1.3,1.5l-1.3,6.5c-0.2,1.2 0.7,2.4 2,2.4h18.1c1.3,0 2.2,-1.2 2,-2.4l-1.3,-6.5c-0.1,-0.7 -0.6,-1.3 -1.3,-1.5l-0.6,-0.2c-0.8,-0.3 -1.4,-1.1 -1.4,-1.9z" fill="#00b871"></path><circle cx="17.5" cy="17" r="2.5" fill="#7dd4ae"></circle><path d="M17.5,12.5c-2.5,0 -4.5,2 -4.5,4.5c0,2.5 2,4.5 4.5,4.5c2.5,0 4.5,-2 4.5,-4.5c0,-2.5 -2,-4.5 -4.5,-4.5zM17.5,19.5c-1.4,0 -2.5,-1.1 -2.5,-2.5c0,-1.4 1.1,-2.5 2.5,-2.5c1.4,0 2.5,1.1 2.5,2.5c0,1.4 -1.1,2.5 -2.5,2.5z" fill="#ffffff"></path><path d="M6.4,24.5c0,1.1 0.9,2 2,2h18.1c1.1,0 2,-0.9 2,-2z" fill="#00b871"></path><path d="M27.1,7.3c-2,-1.2 -4.3,-1.8 -6.6,-1.8h-5.9c-2.3,0 -4.6,0.6 -6.6,1.8c-1.3,0.8 -2,2.1 -2,3.5v2.7c0,0.6 0.4,1 1,1h3.2c0.3,0 0.6,-0.2 0.8,-0.4v-3.6c0,-0.6 0.4,-1 1,-1h11c0.6,0 1,0.4 1,1v3.6c0.2,0.3 0.5,0.4 0.8,0.4h3.2c0.6,0 1,-0.4 1,-1v-2.7c0,-1.4 -0.7,-2.7 -1.9,-3.5z" fill="#00b871"></path><path d="M6,11.5v2c0,0.6 0.4,1 1,1h3.2c0.3,0 0.6,-0.2 0.8,-0.4v-2.6zM24,11.5v2.6c0.2,0.3 0.5,0.4 0.8,0.4h3.2c0.6,0 1,-0.4 1,-1v-2z" fill="#00b871"></path><path d="M28.5,25h-22c-0.3,0 -0.5,-0.2 -0.5,-0.5c0,-0.3 0.2,-0.5 0.5,-0.5h22c0.3,0 0.5,0.2 0.5,0.5c0,0.3 -0.2,0.5 -0.5,0.5zM22.5,17.5h-2.1c-0.3,0 -0.5,-0.2 -0.5,-0.5c0,-0.3 0.2,-0.5 0.5,-0.5h2.1c0.3,0 0.5,0.2 0.5,0.5c0,0.3 -0.2,0.5 -0.5,0.5zM24.5,12c-0.3,0 -0.5,-0.2 -0.5,-0.5c0,-0.3 0.2,-0.5 0.5,-0.5h4c0.3,0 0.5,0.2 0.5,0.5c0,0.3 -0.2,0.5 -0.5,0.5zM10.5,12h-4c-0.3,0 -0.5,-0.2 -0.5,-0.5c0,-0.3 0.2,-0.5 0.5,-0.5h4c0.3,0 0.5,0.2 0.5,0.5c0,0.3 -0.2,0.5 -0.5,0.5z" fill="#50505e"></path><path d="M26.6,27h-18.2c-0.8,0 -1.5,-0.3 -1.9,-0.9c-0.5,-0.6 -0.7,-1.4 -0.5,-2.1l1.3,-6.5c0.2,-0.9 0.8,-1.6 1.7,-1.9l0.5,-0.2c0.6,-0.2 1,-0.8 1,-1.4v-3.6c0,-0.7 0.7,-1.4 1.5,-1.4h11c0.8,0 1.5,0.7 1.5,1.5v3.6c0,0.6 0.4,1.2 1,1.4l0.5,0.2c0.8,0.3 1.5,1 1.7,1.9l1.3,6.4c0.1,0.7 0,1.5 -0.5,2.1c-0.5,0.6 -1.2,0.9 -1.9,0.9zM12,10c-0.3,0 -0.5,0.2 -0.5,0.5v3.6c0,1.1 -0.7,2 -1.7,2.4l-0.5,0.2c-0.5,0.2 -0.9,0.6 -1,1.1l-1.3,6.4c-0.1,0.4 0,0.9 0.3,1.2c0.3,0.3 0.7,0.6 1.1,0.6h18.1c0.5,0 0.9,-0.2 1.2,-0.5c0.3,-0.3 0.4,-0.8 0.3,-1.2l-1.3,-6.5c-0.1,-0.5 -0.5,-1 -1,-1.1l-0.5,-0.2c-1,-0.3 -1.7,-1.3 -1.7,-2.4v-3.6c0,-0.3 -0.2,-0.5 -0.5,-0.5z" fill="#50505e"></path><path d="M17.5,22c-2.8,0 -5,-2.2 -5,-5c0,-2.8 2.2,-5 5,-5c2.8,0 5,2.2 5,5c0,2.8 -2.2,5 -5,5zM17.5,13c-2.2,0 -4,1.8 -4,4c0,2.2 1.8,4 4,4c2.2,0 4,-1.8 4,-4c0,-2.2 -1.8,-4 -4,-4z" fill="#50505e"></path><path d="M17.5,20c-1.7,0 -3,-1.3 -3,-3c0,-1.7 1.3,-3 3,-3c1.7,0 3,1.3 3,3c0,1.7 -1.3,3 -3,3zM17.5,15c-1.1,0 -2,0.9 -2,2c0,1.1 0.9,2 2,2c1.1,0 2,-0.9 2,-2c0,-1.1 -0.9,-2 -2,-2z" fill="#50505e"></path><path d="M28,15h-3.2c-0.5,0 -1,-0.2 -1.2,-0.7c-0.1,-0.1 -0.1,-0.2 -0.1,-0.3v-3.6c0,-0.3 -0.2,-0.5 -0.5,-0.5h-11c-0.3,0 -0.5,0.2 -0.5,0.5v3.6c0,0.1 0,0.2 -0.1,0.3c-0.3,0.4 -0.7,0.7 -1.2,0.7h-3.2c-0.8,0 -1.5,-0.7 -1.5,-1.5v-2.7c0,-1.6 0.8,-3.1 2.2,-3.9c2.1,-1.2 4.4,-1.9 6.9,-1.9h5.9c2.4,0 4.8,0.7 6.9,1.9c1.3,0.8 2.2,2.3 2.2,3.9v2.7c-0.1,0.8 -0.8,1.5 -1.6,1.5zM24.5,13.9c0.1,0.1 0.2,0.1 0.3,0.1h3.2c0.3,0 0.5,-0.2 0.5,-0.5v-2.7c0,-1.2 -0.7,-2.4 -1.7,-3c-1.9,-1.2 -4.1,-1.8 -6.4,-1.8h-5.9c-2.2,0 -4.4,0.6 -6.4,1.8c-1,0.6 -1.7,1.8 -1.7,3v2.7c0.1,0.3 0.3,0.5 0.6,0.5h3.2c0.1,0 0.2,0 0.3,-0.1v-3.4c0,-0.8 0.7,-1.5 1.5,-1.5h11c0.8,0 1.5,0.7 1.5,1.5zM4,22c-0.8,0 -1.5,-0.7 -1.5,-1.5c0,-0.8 0.7,-1.5 1.5,-1.5c0.3,0 0.5,0.2 0.5,0.5c0,0.3 -0.2,0.5 -0.5,0.5c-0.3,0 -0.5,0.2 -0.5,0.5c0,0.3 0.2,0.5 0.5,0.5c0.3,0 0.5,0.2 0.5,0.5c0,0.3 -0.2,0.5 -0.5,0.5z" fill="#50505e"></path><path d="M4,24c-0.8,0 -1.5,-0.7 -1.5,-1.5c0,-0.8 0.7,-1.5 1.5,-1.5c0.3,0 0.5,0.2 0.5,0.5c0,0.3 -0.2,0.5 -0.5,0.5c-0.3,0 -0.5,0.2 -0.5,0.5c0,0.3 0.2,0.5 0.5,0.5c0.3,0 0.5,0.2 0.5,0.5c0,0.3 -0.2,0.5 -0.5,0.5zM4,20c-0.8,0 -1.5,-0.7 -1.5,-1.5c0,-0.8 0.7,-1.5 1.5,-1.5c0.3,0 0.5,0.2 0.5,0.5c0,0.3 -0.2,0.5 -0.5,0.5c-0.3,0 -0.5,0.2 -0.5,0.5c0,0.3 0.2,0.5 0.5,0.5c0.3,0 0.5,0.2 0.5,0.5c0,0.3 -0.2,0.5 -0.5,0.5z" fill="#50505e"></path><path d="M4,18c-0.8,0 -1.5,-0.7 -1.5,-1.5c0,-0.8 0.7,-1.5 1.5,-1.5c0.3,0 0.5,0.2 0.5,0.5c0,0.3 -0.2,0.5 -0.5,0.5c-0.3,0 -0.5,0.2 -0.5,0.5c0,0.3 0.2,0.5 0.5,0.5c0.3,0 0.5,0.2 0.5,0.5c0,0.3 -0.2,0.5 -0.5,0.5z" fill="#50505e"></path><path d="M4,16c-0.3,0 -0.5,-0.2 -0.5,-0.5v-1c0,-0.8 0.7,-1.5 1.5,-1.5h1c0.3,0 0.5,0.2 0.5,0.5c0,0.3 -0.2,0.5 -0.5,0.5h-1c-0.3,0 -0.5,0.2 -0.5,0.5v1c0,0.3 -0.2,0.5 -0.5,0.5z" fill="#50505e"></path></g></g></svg>